<?xml version="1.0" encoding="utf-8"?>
<!-- Generator: Adobe Illustrator 26.0.2, SVG Export Plug-In . SVG Version: 6.00 Build 0)  -->
<svg version="1.1" id="Layer_1" xmlns="http://www.w3.org/2000/svg" xmlns:xlink="http://www.w3.org/1999/xlink" x="0px" y="0px"
	 viewBox="0 0 400 181" enable-background="new 0 0 400 181" xml:space="preserve">
<g id="SEA_PR_2018_3_">
	<g>
		<g>
			<g>
				<g>
					<path fill="#B30537" d="M152.6273,23.5772h3.671l3.2257,10.5446l3.4929-10.5889h2.9365l3.493,10.5889l3.2255-10.5446h3.5818
						l-5.317,15.684h-2.9807l-3.5155-10.1891l-3.5148,10.1891h-2.9809L152.6273,23.5772z"/>
					<path fill="#B30537" d="M177.6104,23.5772h3.4261V39.15h-3.4261V23.5772z"/>
					<path fill="#B30537" d="M183.595,23.5772h3.1588l7.297,9.5888v-9.5888h3.3818V39.15h-2.9145l-7.5419-9.8998V39.15h-3.3812
						V23.5772z"/>
					<path fill="#B30537" d="M199.835,23.5772h3.1588l7.2969,9.5888v-9.5888h3.3818V39.15h-2.9145l-7.5418-9.8998V39.15h-3.3812
						V23.5772z"/>
					<path fill="#B30537" d="M216.0748,23.5772h11.7238v3.0476h-8.3427v3.1594h7.3415v3.0482h-7.3415v3.2694h8.4539V39.15h-11.835
						V23.5772z"/>
					<path fill="#B30537" d="M229.6457,23.5772h7.1191c1.9718,0,3.4846,0.527,4.538,1.5797c0.89,0.8895,1.3348,2.0766,1.3348,3.5592
						v0.0449c0,1.2603-0.3081,2.2877-0.9232,3.0807c-0.6157,0.7943-1.4201,1.3763-2.4136,1.7465l3.8041,5.5618h-4.0046
						l-3.3367-4.9833h-0.0444h-2.6478V39.15h-3.4256V23.5772z M236.5418,31.1409c0.8457,0,1.4946-0.1999,1.9471-0.6003
						c0.4524-0.4003,0.6783-0.9345,0.6783-1.6021v-0.0443c0-0.7412-0.2372-1.2976-0.7121-1.6685
						c-0.4743-0.3703-1.1343-0.556-1.9795-0.556h-3.4042v4.4712H236.5418z"/>
					<path fill="#B30537" d="M244.0163,27.2257h3.5816v3.5598h-3.5816V27.2257z M244.0163,35.5909h3.5816V39.15h-3.5816V35.5909z"/>
					<path fill="#B30537" d="M113.1738,43.8022h7.119c1.9718,0,3.4847,0.5263,4.538,1.5791c0.89,0.8894,1.3348,2.077,1.3348,3.5591
						v0.0451c0,1.2609-0.3081,2.2876-0.9232,3.0813c-0.6157,0.7937-1.4199,1.3756-2.4135,1.7459l3.804,5.5618h-4.0046
						l-3.3369-4.9834h-0.0443h-2.6478v4.9834h-3.4255V43.8022z M120.0698,51.3654c0.8458,0,1.4946-0.1999,1.947-0.6009
						c0.4525-0.3998,0.6784-0.9345,0.6784-1.6016v-0.0437c0-0.7416-0.2372-1.2976-0.7121-1.669
						c-0.4743-0.3703-1.1343-0.556-1.9795-0.556h-3.4042v4.4712H120.0698z"/>
					<path fill="#B30537" d="M127.9234,43.8022h11.7239v3.047h-8.3427v3.1594h7.3413v3.0482h-7.3413v3.2694h8.4539v3.0482h-11.8351
						V43.8022z"/>
					<path fill="#B30537" d="M141.4937,43.8022h3.4255v12.4803h7.7643v3.0919h-11.1898V43.8022z"/>
					<path fill="#B30537" d="M159.2684,43.6911h3.1594l6.6737,15.6834h-3.5816l-1.4236-3.493h-6.5851l-1.4241,3.493h-3.4924
						L159.2684,43.6911z M162.8726,52.8558l-2.0688-5.0497l-2.0688,5.0497H162.8726z"/>
					<path fill="#B30537" d="M176.6652,59.6194c-2.0907,0-3.7372-0.5785-4.9384-1.7353c-1.2012-1.1567-1.8021-2.8849-1.8021-5.1833
						v-8.8985h3.4261v8.8086c0,1.2763,0.2963,2.2368,0.8895,2.8814c0.5931,0.6447,1.4164,0.9677,2.4697,0.9677
						c1.0528,0,1.8761-0.3112,2.4692-0.9345c0.5931-0.6222,0.8901-1.5567,0.8901-2.8034v-8.9198h3.4255v8.7873
						c0,1.1864-0.1592,2.2167-0.4778,3.0921c-0.3194,0.8752-0.7754,1.6051-1.3686,2.1907c-0.5933,0.5866-1.3124,1.0243-2.1576,1.313
						C178.6454,59.475,177.7031,59.6194,176.6652,59.6194z"/>
					<path fill="#B30537" d="M185.6531,43.8022h3.1588l7.2971,9.5882v-9.5882h3.3817v15.5722h-2.9145l-7.5419-9.8992v9.8992h-3.3812
						V43.8022z"/>
					<path fill="#B30537" d="M209.1901,59.6418c-1.1427,0-2.2025-0.2082-3.1813-0.6233c-0.9793-0.4152-1.8245-0.9818-2.5365-1.7021
						c-0.7116-0.7192-1.2681-1.5684-1.6685-2.5468c-0.4004-0.9793-0.6003-2.025-0.6003-3.1369v-0.0449
						c0-1.1119,0.1999-2.154,0.6003-3.1251c0.4004-0.9711,0.9569-1.8239,1.6685-2.5585c0.712-0.7345,1.5648-1.313,2.5584-1.7352
						c0.9937-0.4222,2.0912-0.634,3.2924-0.634c0.727,0,1.3905,0.0591,1.9915,0.1773c0.6002,0.1195,1.1455,0.2827,1.6352,0.4897
						c0.4891,0.2082,0.9415,0.4601,1.3567,0.757c0.4151,0.297,0.8008,0.6222,1.1569,0.9783l-2.1801,2.5136
						c-0.6084-0.5477-1.2271-0.9783-1.8576-1.2894c-0.6304-0.3123-1.3384-0.4672-2.1244-0.4672
						c-0.653,0-1.2574,0.1254-1.8134,0.3773c-0.556,0.2531-1.0344,0.6009-1.4348,1.0457c-0.4004,0.4447-0.712,0.9604-0.9343,1.5459
						c-0.2224,0.5867-0.3336,1.2125-0.3336,1.8808v0.0437c0,0.6684,0.1112,1.2988,0.3336,1.8914
						c0.2224,0.5939,0.5298,1.1119,0.9231,1.5567c0.3928,0.4458,0.8676,0.7985,1.4236,1.0574
						c0.5566,0.2591,1.1681,0.3892,1.8359,0.3892c0.8894,0,1.6423-0.1633,2.258-0.4897c0.6151-0.3252,1.2266-0.7712,1.8352-1.3342
						l2.1801,2.2024c-0.4004,0.4306-0.8157,0.815-1.2457,1.1569c-0.4305,0.3406-0.9013,0.634-1.4129,0.8789
						c-0.5115,0.2448-1.0716,0.4294-1.6796,0.556C210.6285,59.5779,209.9459,59.6418,209.1901,59.6418z"/>
					<path fill="#B30537" d="M216.9762,43.8022h3.4255v6.1615h6.3182v-6.1615h3.4261v15.5722h-3.4261v-6.2513h-6.3182v6.2513
						h-3.4255V43.8022z"/>
					<path fill="#B30537" d="M245.4517,59.6418c-1.2012,0-2.3066-0.2117-3.315-0.634c-1.0084-0.4235-1.8794-0.9936-2.6141-1.714
						c-0.7339-0.7191-1.3052-1.5637-1.7127-2.536c-0.4081-0.9712-0.6116-2.0132-0.6116-3.1251v-0.0449
						c0-1.1119,0.2077-2.154,0.6228-3.1251c0.4151-0.9711,0.9899-1.8239,1.724-2.5585c0.734-0.7345,1.6093-1.313,2.6254-1.7352
						c1.0154-0.4222,2.1244-0.634,3.3256-0.634s2.3061,0.2117,3.315,0.634c1.0082,0.4222,1.8795,0.9936,2.614,1.7128
						c0.734,0.7191,1.3046,1.5648,1.7128,2.536c0.4081,0.9723,0.612,2.0132,0.612,3.1264v0.0437
						c0,1.113-0.2081,2.1552-0.6232,3.1262c-0.4153,0.9712-0.9902,1.824-1.7242,2.5586c-0.7339,0.7333-1.6091,1.3118-2.6252,1.7352
						C247.7618,59.4301,246.6529,59.6418,245.4517,59.6418z M245.496,56.4824c0.6819,0,1.313-0.1254,1.8914-0.3785
						c0.5784-0.2519,1.0712-0.6009,1.4792-1.0457c0.4075-0.4448,0.7263-0.9593,0.9563-1.5459
						c0.2301-0.5855,0.3448-1.2125,0.3448-1.8796v-0.0449c0-0.6672-0.1147-1.2976-0.3448-1.8903
						c-0.23-0.5938-0.5558-1.113-0.9788-1.5578c-0.4222-0.4448-0.9232-0.7972-1.5016-1.0563
						c-0.5784-0.2602-1.2089-0.3891-1.8907-0.3891c-0.6973,0-1.3314,0.1254-1.9021,0.3773
						c-0.5712,0.2531-1.0603,0.6009-1.4685,1.0457c-0.4081,0.4447-0.7269,0.9604-0.9563,1.5459
						c-0.2301,0.5867-0.3448,1.2125-0.3448,1.8808v0.0437c0,0.6684,0.1147,1.2988,0.3448,1.8914
						c0.2294,0.5939,0.556,1.1119,0.9788,1.5567c0.4228,0.4458,0.9191,0.7985,1.4904,1.0574
						C244.1647,56.3523,244.7987,56.4824,245.496,56.4824z"/>
					<path fill="#B30537" d="M255.4627,43.8022h11.8575v3.0919h-8.432v3.3593h7.4307v3.0921h-7.4307v6.029h-3.4255V43.8022z"/>
					<path fill="#B30537" d="M279.399,43.6911h3.1594l6.6737,15.6834h-3.5818l-1.4234-3.493h-6.5851l-1.4242,3.493h-3.4924
						L279.399,43.6911z M283.0032,52.8558l-2.0688-5.0497l-2.0688,5.0497H283.0032z"/>
					<path fill="#B30537" d="M143.7736,79.8213c-1.1869,0-2.3509-0.2035-3.4929-0.6116c-1.1421-0.4081-2.1801-1.035-3.1145-1.8796
						l2.0245-2.4248c0.7115,0.5784,1.4419,1.0373,2.1911,1.3791c0.7488,0.3407,1.5686,0.511,2.458,0.511
						c0.7121,0,1.2645-0.1289,1.6578-0.3892c0.3927-0.259,0.5896-0.6186,0.5896-1.0787v-0.0449c0-0.2224-0.0414-0.4187-0.1231-0.589
						c-0.0821-0.1704-0.2378-0.3301-0.4684-0.478c-0.2306-0.149-0.5506-0.2969-0.9593-0.4459
						c-0.4093-0.1479-0.9403-0.3028-1.5945-0.4673c-0.7884-0.1916-1.5022-0.4069-2.1415-0.6446
						c-0.64-0.2366-1.1823-0.5299-1.6283-0.8789c-0.4465-0.3478-0.7919-0.7819-1.0373-1.3011
						c-0.2455-0.5193-0.3685-1.1639-0.3685-1.9352v-0.0449c0-0.7121,0.1324-1.3532,0.398-1.9244
						c0.2649-0.5701,0.637-1.0635,1.116-1.4798c0.479-0.4152,1.0509-0.7334,1.7157-0.9558
						c0.6647-0.2224,1.3975-0.3336,2.1989-0.3336c1.1415,0,2.1913,0.1704,3.1475,0.511c0.957,0.3418,1.8353,0.8304,2.6366,1.4679
						l-1.7802,2.581c-0.6973-0.4743-1.3792-0.8493-2.0464-1.1238c-0.6678-0.2743-1.3348-0.4116-2.0025-0.4116
						c-0.6672,0-1.1675,0.1301-1.5017,0.3892c-0.3335,0.2602-0.5002,0.5831-0.5002,0.9688v0.0437
						c0,0.2532,0.0484,0.4708,0.1449,0.6565s0.2708,0.3525,0.524,0.5004c0.2531,0.1491,0.5985,0.2898,1.0374,0.4234
						c0.4388,0.1325,0.9924,0.2886,1.6618,0.4673c0.7884,0.207,1.4904,0.4411,2.1079,0.7002
						c0.6168,0.2602,1.1372,0.5714,1.5613,0.9345s0.7441,0.7901,0.9593,1.2786c0.2152,0.4897,0.3235,1.0764,0.3235,1.7578v0.0449
						c0,0.7712-0.1401,1.4572-0.4199,2.0581c-0.2803,0.5997-0.6707,1.1048-1.1716,1.5117
						c-0.5009,0.4081-1.0988,0.7203-1.7931,0.9345C145.3888,79.7136,144.6188,79.8213,143.7736,79.8213z"/>
					<path fill="#B30537" d="M151.2706,64.0266h3.4261v15.5723h-3.4261V64.0266z"/>
					<path fill="#B30537" d="M157.2552,64.0266h3.1588l7.297,9.5882v-9.5882h3.3818v15.5723h-2.9145l-7.5419-9.8994v9.8994h-3.3812
						V64.0266z"/>
					<path fill="#B30537" d="M180.9922,79.8663c-1.216,0-2.325-0.2011-3.3256-0.6009c-1.0013-0.401-1.8618-0.957-2.581-1.669
						c-0.7191-0.7121-1.2792-1.5567-1.6796-2.5361c-0.4004-0.9782-0.6003-2.0464-0.6003-3.2031v-0.0449
						c0-1.1119,0.2035-2.1541,0.6116-3.1251c0.4075-0.9712,0.9753-1.824,1.702-2.5585c0.7264-0.7346,1.5869-1.313,2.5804-1.7352
						c0.9936-0.4224,2.0836-0.6341,3.27-0.6341c0.6973,0,1.3313,0.0486,1.9026,0.1444c0.5707,0.0969,1.1013,0.2341,1.5904,0.4116
						c0.4897,0.1787,0.9492,0.4011,1.3792,0.6672c0.43,0.2673,0.8457,0.5713,1.2461,0.9119l-2.1581,2.6034
						c-0.297-0.2519-0.5933-0.4743-0.8901-0.667c-0.2963-0.1928-0.6044-0.3561-0.9232-0.4897
						c-0.3188-0.1337-0.6636-0.2367-1.0344-0.3112c-0.3709-0.0745-0.7784-0.1112-1.2237-0.1112
						c-0.6227,0-1.2047,0.1301-1.7459,0.3904c-0.5417,0.2591-1.016,0.6091-1.4242,1.048c-0.4081,0.4376-0.7269,0.9511-0.9563,1.5378
						c-0.23,0.5878-0.3448,1.216-0.3448,1.8842v0.0449c0,0.7133,0.1148,1.371,0.3448,1.973
						c0.2294,0.6021,0.556,1.1261,0.9788,1.5721c0.4229,0.4459,0.9191,0.7913,1.4904,1.0373
						c0.5707,0.2449,1.2047,0.3668,1.902,0.3668c1.2757,0,2.3503-0.3135,3.2257-0.9404v-2.2403h-3.448v-2.9595h6.763v6.7636
						c-0.8009,0.6825-1.7542,1.2645-2.8584,1.7459C183.6801,79.625,182.4163,79.8663,180.9922,79.8663z"/>
					<path fill="#B30537" d="M194.9403,63.9154h3.1594l6.6737,15.6835h-3.5818l-1.4236-3.493h-6.5849l-1.4242,3.493h-3.4924
						L194.9403,63.9154z M198.5445,73.0802l-2.0688-5.0495l-2.0688,5.0495H198.5445z"/>
					<path fill="#B30537" d="M205.8414,64.0266h6.3625c0.9345,0,1.7684,0.129,2.5024,0.3892
						c0.7345,0.2591,1.3573,0.627,1.8688,1.1013c0.5116,0.4743,0.9043,1.042,1.1794,1.701c0.2743,0.6612,0.4116,1.391,0.4116,2.1919
						v0.0449c0,0.9048-0.1639,1.6985-0.4897,2.3798c-0.3264,0.6825-0.7753,1.2539-1.3461,1.7128
						c-0.5707,0.4601-1.2385,0.8055-2.0021,1.035c-0.7641,0.2294-1.5832,0.3441-2.4585,0.3441h-2.603v4.6724h-3.4255V64.0266z
						 M211.9816,71.8796c0.86,0,1.5271-0.2259,2.0021-0.6789c0.4743-0.4519,0.7121-1.0126,0.7121-1.6796V69.476
						c0-0.77-0.249-1.3567-0.7453-1.7564c-0.4973-0.401-1.1758-0.6009-2.0356-0.6009h-2.6479v4.7609H211.9816z"/>
					<path fill="#B30537" d="M226.9312,79.8663c-1.2013,0-2.3067-0.2117-3.315-0.6341c-1.0084-0.4235-1.8795-0.9936-2.614-1.7139
						c-0.734-0.7192-1.3054-1.5637-1.7129-2.5361c-0.4079-0.9711-0.6114-2.0132-0.6114-3.125v-0.0449
						c0-1.1119,0.2075-2.1541,0.6227-3.1251c0.4153-0.9712,0.9901-1.824,1.7241-2.5585c0.7339-0.7346,1.6093-1.313,2.6254-1.7352
						c1.0154-0.4224,2.1243-0.6341,3.3255-0.6341s2.3061,0.2117,3.315,0.6341c1.0085,0.4222,1.8795,0.9936,2.6141,1.7127
						c0.7339,0.7192,1.3046,1.5649,1.7127,2.5361c0.4081,0.9722,0.6122,2.0132,0.6122,3.1262v0.0438
						c0,1.113-0.2082,2.1552-0.6233,3.1262c-0.4152,0.9712-0.9901,1.824-1.7241,2.5585c-0.7339,0.7334-1.6093,1.3118-2.6254,1.7352
						C229.2413,79.6545,228.1323,79.8663,226.9312,79.8663z M226.9754,76.7069c0.6819,0,1.313-0.1254,1.8915-0.3785
						c0.5784-0.2519,1.071-0.6009,1.4792-1.0457c0.4075-0.4448,0.7264-0.9593,0.9563-1.546
						c0.2301-0.5855,0.3448-1.2123,0.3448-1.8795v-0.0449c0-0.6672-0.1147-1.2976-0.3448-1.8903
						c-0.2299-0.5938-0.556-1.113-0.9788-1.5578c-0.4222-0.4448-0.9232-0.7972-1.5016-1.0563
						c-0.5785-0.2602-1.2088-0.3892-1.8907-0.3892c-0.6974,0-1.3314,0.1254-1.9021,0.3773
						c-0.5712,0.2532-1.0604,0.6009-1.4685,1.0457c-0.4081,0.4448-0.7269,0.9605-0.9563,1.546
						c-0.2301,0.5867-0.3448,1.2125-0.3448,1.8807v0.0438c0,0.6682,0.1147,1.2987,0.3448,1.8913
						c0.2294,0.5938,0.5558,1.1119,0.9788,1.5566c0.423,0.446,0.9191,0.7985,1.4903,1.0575
						C225.6441,76.5768,226.2783,76.7069,226.9754,76.7069z"/>
					<path fill="#B30537" d="M236.9422,64.0266h7.119c1.9718,0,3.4847,0.5264,4.538,1.5791
						c0.8901,0.8895,1.3348,2.0772,1.3348,3.5592v0.0449c0,1.2609-0.3082,2.2877-0.9231,3.0814
						c-0.6158,0.7936-1.4201,1.3756-2.4136,1.7459l3.8041,5.5618h-4.0047l-3.3369-4.9834h-0.0443h-2.6478v4.9834h-3.4255V64.0266z
						 M243.8382,71.5898c0.8458,0,1.4946-0.2,1.9469-0.6009c0.4525-0.3998,0.6785-0.9345,0.6785-1.6016v-0.0437
						c0-0.7416-0.2373-1.2976-0.7122-1.6691c-0.4743-0.3702-1.1343-0.5558-1.9795-0.5558h-3.4042v4.4712H243.8382z"/>
					<path fill="#B30537" d="M251.6918,64.0266h11.7238v3.0471h-8.3427v3.1593h7.3414v3.0483h-7.3414v3.2694h8.4539v3.0482h-11.8351
						V64.0266z"/>
					<path fill="#B30537" d="M106.8112,84.2511h11.7239v3.047h-8.3427v3.1594h7.3415v3.0482h-7.3415v3.2694h8.4539v3.0482h-11.8351
						V84.2511z"/>
					<path fill="#B30537" d="M120.3815,84.2511h6.0734c1.216,0,2.332,0.1964,3.3481,0.589c1.0154,0.3927,1.8907,0.938,2.6248,1.6347
						c0.7345,0.6979,1.3017,1.5177,1.702,2.4592c0.4004,0.9415,0.6009,1.9611,0.6009,3.0589v0.0437
						c0,1.0977-0.2005,2.1209-0.6009,3.0707c-0.4003,0.9486-0.9675,1.7719-1.702,2.4686c-0.734,0.6978-1.6094,1.2467-2.6248,1.6465
						c-1.0161,0.401-2.1322,0.6009-3.3481,0.6009h-6.0734V84.2511z M126.4549,96.7314c0.6967,0,1.3349-0.1112,1.9133-0.3336
						c0.5784-0.2224,1.0711-0.5418,1.4792-0.9569c0.4081-0.4152,0.7263-0.9049,0.9569-1.4679
						c0.2295-0.5643,0.3448-1.1948,0.3448-1.8915v-0.0449c0-0.6813-0.1153-1.3118-0.3448-1.8901
						c-0.2306-0.5785-0.5488-1.0752-0.9569-1.4904s-0.9008-0.7381-1.4792-0.9688c-0.5784-0.2294-1.2166-0.3442-1.9133-0.3442
						h-2.6478v9.3883H126.4549z"/>
					<path fill="#B30537" d="M142.9398,100.0682c-2.0907,0-3.7373-0.5785-4.9385-1.7352c-1.2012-1.1568-1.8021-2.885-1.8021-5.1833
						v-8.8986h3.4261v8.8088c0,1.2763,0.2964,2.2367,0.8895,2.8814c0.5933,0.6446,1.4164,0.9675,2.4698,0.9675
						c1.0527,0,1.876-0.3111,2.4691-0.9345c0.5933-0.6222,0.8902-1.5567,0.8902-2.8034v-8.9198h3.4255v8.7875
						c0,1.1864-0.159,2.2167-0.4778,3.0919c-0.3194,0.8754-0.7753,1.6051-1.3686,2.1907c-0.5931,0.5867-1.3124,1.0243-2.1575,1.313
						C144.9198,99.9238,143.9777,100.0682,142.9398,100.0682z"/>
					<path fill="#B30537" d="M159.2247,100.0906c-1.1427,0-2.2025-0.2081-3.1813-0.6233c-0.9794-0.4152-1.8245-0.9818-2.5366-1.7022
						c-0.7115-0.7191-1.2681-1.5684-1.6685-2.5466c-0.4003-0.9794-0.6003-2.0251-0.6003-3.137v-0.0449
						c0-1.1118,0.2-2.154,0.6003-3.1251c0.4004-0.9711,0.957-1.8239,1.6685-2.5585c0.7121-0.7345,1.5649-1.3129,2.5585-1.7352
						c0.9936-0.4222,2.0913-0.634,3.2925-0.634c0.7269,0,1.3904,0.0591,1.9913,0.1775c0.6003,0.1194,1.1456,0.2827,1.6353,0.4897
						c0.4891,0.2081,0.9415,0.4601,1.3567,0.757c0.4152,0.2969,0.8008,0.6221,1.1569,0.9782l-2.18,2.5136
						c-0.6086-0.5477-1.2272-0.9782-1.8577-1.2894c-0.6304-0.3123-1.3384-0.4672-2.1244-0.4672
						c-0.653,0-1.2574,0.1254-1.8133,0.3773c-0.556,0.2532-1.0344,0.6009-1.4348,1.0457c-0.4003,0.4448-0.712,0.9605-0.9344,1.546
						c-0.2224,0.5866-0.3336,1.2123-0.3336,1.8807v0.0437c0,0.6684,0.1112,1.2988,0.3336,1.8914
						c0.2224,0.5939,0.5299,1.1119,0.9232,1.5567c0.3927,0.446,0.8676,0.7984,1.4236,1.0575
						c0.5564,0.259,1.168,0.3891,1.8358,0.3891c0.8895,0,1.6423-0.1632,2.258-0.4897c0.6152-0.3252,1.2266-0.7712,1.8353-1.3342
						l2.18,2.2024c-0.4004,0.4306-0.8156,0.815-1.2455,1.1569c-0.4306,0.3407-0.9014,0.6341-1.4129,0.8789
						c-0.5116,0.2449-1.0717,0.4294-1.6797,0.556C160.663,100.0268,159.9805,100.0906,159.2247,100.0906z"/>
					<path fill="#B30537" d="M172.3496,84.1399h3.1594l6.6737,15.6834h-3.5816l-1.4236-3.493h-6.5851l-1.4241,3.493h-3.4924
						L172.3496,84.1399z M175.9538,93.3046l-2.0688-5.0496l-2.0688,5.0496H175.9538z"/>
					<path fill="#B30537" d="M186.8769,87.4093h-4.7385v-3.1582h12.9031v3.1582h-4.7385v12.414h-3.4261V87.4093z"/>
					<path fill="#B30537" d="M196.4876,84.2511h3.4261v15.5722h-3.4261V84.2511z"/>
					<path fill="#B30537" d="M210.0352,100.0906c-1.2012,0-2.3066-0.2117-3.3148-0.634c-1.0085-0.4234-1.8796-0.9936-2.6141-1.7139
						c-0.734-0.7192-1.3052-1.5638-1.7128-2.5361c-0.4081-0.971-0.6116-2.0132-0.6116-3.1251v-0.0449
						c0-1.1118,0.2076-2.154,0.6228-3.1251c0.4152-0.9711,0.9901-1.8239,1.724-2.5585c0.734-0.7345,1.6094-1.3129,2.6252-1.7352
						c1.0155-0.4222,2.1244-0.634,3.3256-0.634c1.2012,0,2.306,0.2117,3.3149,0.634c1.0085,0.4224,1.8797,0.9936,2.6141,1.7128
						c0.734,0.7191,1.3048,1.5649,1.7128,2.536c0.4081,0.9724,0.6122,2.0132,0.6122,3.1263v0.0437
						c0,1.1131-0.2081,2.1552-0.6234,3.1263c-0.4151,0.9711-0.9899,1.8239-1.724,2.5585c-0.734,0.7334-1.6093,1.3118-2.6254,1.7352
						C212.3454,99.8789,211.2364,100.0906,210.0352,100.0906z M210.0795,96.9312c0.6819,0,1.313-0.1254,1.8916-0.3785
						c0.5782-0.2519,1.0709-0.6009,1.4789-1.0456c0.4076-0.4448,0.7264-0.9593,0.9564-1.546
						c0.23-0.5855,0.3448-1.2125,0.3448-1.8796v-0.0449c0-0.6672-0.1148-1.2976-0.3448-1.8901
						c-0.23-0.5939-0.556-1.1131-0.9788-1.5579c-0.4221-0.4446-0.9232-0.7972-1.5017-1.0562
						c-0.5784-0.2603-1.2088-0.3892-1.8907-0.3892c-0.6973,0-1.3313,0.1254-1.902,0.3773
						c-0.5714,0.2532-1.0603,0.6009-1.4685,1.0457c-0.4081,0.4448-0.7267,0.9605-0.9564,1.546
						c-0.2299,0.5866-0.3446,1.2123-0.3446,1.8807v0.0437c0,0.6684,0.1147,1.2988,0.3446,1.8914
						c0.2296,0.5939,0.556,1.1119,0.9788,1.5567c0.423,0.446,0.9191,0.7984,1.4904,1.0575
						C208.7483,96.8011,209.3822,96.9312,210.0795,96.9312z"/>
					<path fill="#B30537" d="M220.0462,84.2511h3.1589l7.297,9.5882v-9.5882h3.3818v15.5722h-2.9145l-7.542-9.8992v9.8992h-3.3812
						V84.2511z"/>
					<path fill="#B30537" d="M241.7807,84.2511h3.4261v15.5722h-3.4261V84.2511z"/>
					<path fill="#B30537" d="M255.0623,100.0906c-1.1426,0-2.2024-0.2081-3.1812-0.6233c-0.9794-0.4152-1.8246-0.9818-2.5367-1.7022
						c-0.7114-0.7191-1.2681-1.5684-1.6682-2.5466c-0.4006-0.9794-0.6004-2.0251-0.6004-3.137v-0.0449
						c0-1.1118,0.1998-2.154,0.6004-3.1251c0.4002-0.9711,0.9569-1.8239,1.6682-2.5585c0.7121-0.7345,1.5649-1.3129,2.5585-1.7352
						c0.9937-0.4222,2.0913-0.634,3.2926-0.634c0.7267,0,1.3903,0.0591,1.9913,0.1775c0.6002,0.1194,1.1455,0.2827,1.6352,0.4897
						c0.4891,0.2081,0.9416,0.4601,1.3567,0.757c0.4153,0.2969,0.8009,0.6221,1.1569,0.9782l-2.18,2.5136
						c-0.6086-0.5477-1.2272-0.9782-1.8577-1.2894c-0.6305-0.3123-1.3384-0.4672-2.1244-0.4672
						c-0.6529,0-1.2574,0.1254-1.8132,0.3773c-0.556,0.2532-1.0345,0.6009-1.4348,1.0457c-0.4004,0.4448-0.7121,0.9605-0.9345,1.546
						c-0.2224,0.5866-0.3336,1.2123-0.3336,1.8807v0.0437c0,0.6684,0.1112,1.2988,0.3336,1.8914
						c0.2224,0.5939,0.5299,1.1119,0.9233,1.5567c0.3926,0.446,0.8675,0.7984,1.4234,1.0575
						c0.5566,0.259,1.1681,0.3891,1.8358,0.3891c0.8895,0,1.6424-0.1632,2.2581-0.4897c0.6152-0.3252,1.2266-0.7712,1.8351-1.3342
						l2.18,2.2024c-0.4003,0.4306-0.8155,0.815-1.2455,1.1569c-0.4306,0.3407-0.9013,0.6341-1.4129,0.8789
						c-0.5116,0.2449-1.0717,0.4294-1.6797,0.556C256.5006,100.0268,255.8181,100.0906,255.0623,100.0906z"/>
					<path fill="#B30537" d="M270.4123,100.0906c-1.2012,0-2.3065-0.2117-3.315-0.634c-1.0085-0.4234-1.8796-0.9936-2.614-1.7139
						c-0.734-0.7192-1.3055-1.5638-1.713-2.5361c-0.4079-0.971-0.6114-2.0132-0.6114-3.1251v-0.0449
						c0-1.1118,0.2075-2.154,0.6227-3.1251c0.4151-0.9711,0.9901-1.8239,1.724-2.5585c0.734-0.7345,1.6093-1.3129,2.6255-1.7352
						c1.0154-0.4222,2.1244-0.634,3.3255-0.634c1.2012,0,2.306,0.2117,3.3149,0.634c1.0084,0.4224,1.8796,0.9936,2.6141,1.7128
						c0.734,0.7191,1.3047,1.5649,1.7128,2.536c0.4081,0.9724,0.6122,2.0132,0.6122,3.1263v0.0437
						c0,1.1131-0.2082,2.1552-0.6234,3.1263c-0.4152,0.9711-0.9901,1.8239-1.724,2.5585c-0.734,0.7334-1.6094,1.3118-2.6254,1.7352
						C272.7224,99.8789,271.6135,100.0906,270.4123,100.0906z M270.4566,96.9312c0.6819,0,1.313-0.1254,1.8914-0.3785
						c0.5785-0.2519,1.0711-0.6009,1.4792-1.0456c0.4075-0.4448,0.7263-0.9593,0.9564-1.546
						c0.23-0.5855,0.3447-1.2125,0.3447-1.8796v-0.0449c0-0.6672-0.1147-1.2976-0.3447-1.8901
						c-0.2301-0.5939-0.556-1.1131-0.9788-1.5579c-0.4224-0.4446-0.9232-0.7972-1.5017-1.0562
						c-0.5784-0.2603-1.2088-0.3892-1.8908-0.3892c-0.6973,0-1.3313,0.1254-1.902,0.3773
						c-0.5713,0.2532-1.0604,0.6009-1.4686,1.0457c-0.4082,0.4448-0.7269,0.9605-0.9564,1.546
						c-0.23,0.5866-0.3447,1.2123-0.3447,1.8807v0.0437c0,0.6684,0.1147,1.2988,0.3447,1.8914
						c0.2295,0.5939,0.556,1.1119,0.9788,1.5567c0.4229,0.446,0.9192,0.7984,1.4905,1.0575
						C269.1254,96.8011,269.7593,96.9312,270.4566,96.9312z"/>
					<path fill="#B30537" d="M280.4233,84.2511h3.1588l7.297,9.5882v-9.5882h3.3817v15.5722h-2.9144l-7.5419-9.8992v9.8992h-3.3812
						V84.2511z"/>
				</g>
				<g>
					<path fill="#B30537" d="M106.1276,118.0936c2.3935,0.582,3.6385,1.4396,3.6385,3.3321c0,2.1339-1.6655,3.396-4.043,3.396
						c-1.7305,0-3.3635-0.5985-4.7219-1.8121l1.1963-1.423c1.0836,0.938,2.167,1.4715,3.574,1.4715
						c1.229,0,2.0056-0.5654,2.0056-1.4383c0-0.8257-0.453-1.2621-2.5556-1.7471c-2.4094-0.582-3.7679-1.2941-3.7679-3.396
						c0-1.973,1.6175-3.2991,3.8656-3.2991c1.6495,0,2.9589,0.5016,4.1074,1.423l-1.0675,1.5046
						c-1.0185-0.7605-2.0376-1.1651-3.0726-1.1651c-1.1645,0-1.8434,0.5985-1.8434,1.3591
						C103.4431,117.1888,103.9605,117.5767,106.1276,118.0936z"/>
					<path fill="#B30537" d="M115.6247,124.8536c-2.6034,0-4.528-1.9896-4.528-4.431c0-2.458,1.9405-4.4796,4.5606-4.4796
						c2.6199,0,4.5445,1.9884,4.5445,4.4476C120.2017,122.8321,118.2607,124.8536,115.6247,124.8536z M115.6247,117.6571
						c-1.5684,0-2.571,1.2289-2.571,2.7335c0,1.52,1.0836,2.7655,2.6036,2.7655c1.5849,0,2.5875-1.2301,2.5875-2.7335
						C118.2447,118.9027,117.1613,117.6571,115.6247,117.6571z"/>
					<path fill="#B30537" d="M127.4833,116.1206h1.957v8.539h-1.957v-1.3259c-0.5494,0.8079-1.3419,1.5034-2.6679,1.5034
						c-1.9245,0-3.0406-1.2929-3.0406-3.2825v-5.434h1.9571v4.8521c0,1.3259,0.6629,2.0854,1.8274,2.0854
						c1.132,0,1.9239-0.7914,1.9239-2.1186V116.1206z"/>
					<path fill="#B30537" d="M133.9406,121.9911c0,0.7605,0.3886,1.067,1.0515,1.067c0.4365,0,0.8245-0.097,1.2124-0.2911v1.6016
						c-0.485,0.2743-1.035,0.4364-1.7625,0.4364c-1.4394,0-2.458-0.6304-2.458-2.5064v-4.496h-1.0835v-1.6821h1.0835v-2.3444h1.9565
						v2.3444h2.2965v1.6821h-2.2965V121.9911z"/>
					<path fill="#B30537" d="M139.8466,124.6596h-1.9571v-11.8049h1.9571v4.5918c0.5494-0.8079,1.3419-1.5034,2.6679-1.5034
						c1.9245,0,3.0405,1.2941,3.0405,3.2825v5.434h-1.957v-4.852c0-1.3261-0.6629-2.0854-1.8269-2.0854
						c-1.1319,0-1.9244,0.7925-1.9244,2.1185V124.6596z"/>
					<path fill="#B30537" d="M151.5432,123.2532c0.954,0,1.6335-0.3561,2.3125-1.0196l1.1485,1.0196
						c-0.8091,0.97-1.9245,1.6004-3.4936,1.6004c-2.4738,0-4.3824-1.7955-4.3824-4.4476c0-2.458,1.7305-4.463,4.1725-4.463
						c2.7171,0,4.0915,2.1351,4.0915,4.6084c0,0.1787-0.0165,0.3395-0.0325,0.5346h-6.2745
						C149.3118,122.4761,150.2817,123.2532,151.5432,123.2532z M153.4518,119.7922c-0.1296-1.2621-0.8735-2.2487-2.1676-2.2487
						c-1.1965,0-2.0374,0.9226-2.2155,2.2487H153.4518z"/>
					<path fill="#B30537" d="M162.2694,124.6596v-1.0515c-0.582,0.6955-1.4715,1.2289-2.7655,1.2289
						c-1.617,0-3.04-0.9214-3.04-2.6354v-0.0318c0-1.8441,1.4714-2.7502,3.4604-2.7502c1.035,0,1.698,0.1456,2.3616,0.3561v-0.2105
						c0-1.1805-0.7439-1.8275-2.1025-1.8275c-0.954,0-1.6661,0.2105-2.442,0.5346l-0.5334-1.5697
						c0.938-0.4199,1.8594-0.7109,3.2504-0.7109c2.5225,0,3.7514,1.326,3.7514,3.6065v5.0614H162.2694z M162.3178,121.0377
						c-0.501-0.1951-1.1965-0.3407-1.9564-0.3407c-1.2296,0-1.9571,0.5016-1.9571,1.3745v0.0331c0,0.8079,0.7275,1.261,1.6496,1.261
						c1.294,0,2.2639-0.7275,2.2639-1.7944V121.0377z"/>
					<path fill="#B30537" d="M169.1464,124.8216c-1.2124,0-2.555-0.4364-3.6225-1.2775l0.8736-1.3259
						c0.9214,0.6943,1.9244,1.0504,2.7974,1.0504c0.8411,0,1.3267-0.3561,1.3267-0.9215v-0.0319
						c0-0.6636-0.9061-0.8895-1.9086-1.1971c-1.2615-0.3561-2.6686-0.8729-2.6686-2.5064v-0.0332
						c0-1.6169,1.3425-2.6034,3.0406-2.6034c1.0675,0,2.2315,0.3726,3.1375,0.9712l-0.7765,1.3898
						c-0.8244-0.5014-1.6979-0.8079-2.4094-0.8079c-0.7601,0-1.1971,0.3549-1.1971,0.8565v0.0331
						c0,0.6139,0.922,0.873,1.9244,1.1959c1.2456,0.388,2.6526,0.9546,2.6526,2.491v0.032
						C172.3165,123.9321,170.9254,124.8216,169.1464,124.8216z"/>
					<path fill="#B30537" d="M176.185,121.9911c0,0.7605,0.3886,1.067,1.0516,1.067c0.4364,0,0.8245-0.097,1.2125-0.2911v1.6016
						c-0.485,0.2743-1.035,0.4364-1.7625,0.4364c-1.4396,0-2.458-0.6304-2.458-2.5064v-4.496h-1.0835v-1.6821h1.0835v-2.3444h1.9564
						v2.3444h2.2965v1.6821h-2.2965V121.9911z"/>
					<path fill="#B30537" d="M195.7252,124.6596h-2.102l-1.1485-2.7335h-5.3531l-1.1639,2.7335h-2.038l4.981-11.4015h1.8435
						L195.7252,124.6596z M189.7903,115.6356l-1.9405,4.528h3.8975L189.7903,115.6356z"/>
					<path fill="#B30537" d="M200.0485,124.8216c-1.2124,0-2.555-0.4364-3.6225-1.2775l0.8736-1.3259
						c0.9214,0.6943,1.9244,1.0504,2.7974,1.0504c0.8411,0,1.3266-0.3561,1.3266-0.9215v-0.0319
						c0-0.6636-0.906-0.8895-1.9084-1.1971c-1.2615-0.3561-2.6686-0.8729-2.6686-2.5064v-0.0332
						c0-1.6169,1.3425-2.6034,3.0406-2.6034c1.0675,0,2.2315,0.3726,3.1375,0.9712l-0.7765,1.3898
						c-0.8245-0.5014-1.6979-0.8079-2.4094-0.8079c-0.7601,0-1.1971,0.3549-1.1971,0.8565v0.0331
						c0,0.6139,0.922,0.873,1.9244,1.1959c1.2457,0.388,2.6526,0.9546,2.6526,2.491v0.032
						C203.2186,123.9321,201.8275,124.8216,200.0485,124.8216z"/>
					<path fill="#B30537" d="M204.9207,114.8112v-1.8595h2.1017v1.8595H204.9207z M205.0016,124.6596v-8.539h1.9564v8.539H205.0016z
						"/>
					<path fill="#B30537" d="M214.4147,124.6596v-1.0515c-0.5819,0.6955-1.4714,1.2289-2.7655,1.2289
						c-1.6169,0-3.0399-0.9214-3.0399-2.6354v-0.0318c0-1.8441,1.4714-2.7502,3.4604-2.7502c1.0351,0,1.698,0.1456,2.3609,0.3561
						v-0.2105c0-1.1805-0.7435-1.8275-2.1019-1.8275c-0.954,0-1.6661,0.2105-2.442,0.5346l-0.5336-1.5697
						c0.9374-0.4199,1.8596-0.7109,3.2505-0.7109c2.5224,0,3.7515,1.326,3.7515,3.6065v5.0614H214.4147z M214.4633,121.0377
						c-0.5008-0.1951-1.1965-0.3407-1.9565-0.3407c-1.2295,0-1.957,0.5016-1.957,1.3745v0.0331c0,0.8079,0.7275,1.261,1.6495,1.261
						c1.2941,0,2.2641-0.7275,2.2641-1.7944V121.0377z"/>
					<path fill="#B30537" d="M228.6847,121.8775h-0.0644l-3.5415-5.3039v8.086h-1.9569v-11.3199h2.1185l3.4444,5.3525l3.4444-5.3525
						h2.1186v11.3199h-1.989v-8.1179L228.6847,121.8775z"/>
					<path fill="#B30537" d="M241.8385,124.6596v-1.0515c-0.5819,0.6955-1.4714,1.2289-2.7655,1.2289
						c-1.6169,0-3.0399-0.9214-3.0399-2.6354v-0.0318c0-1.8441,1.4714-2.7502,3.4604-2.7502c1.035,0,1.698,0.1456,2.3616,0.3561
						v-0.2105c0-1.1805-0.7439-1.8275-2.1025-1.8275c-0.954,0-1.6659,0.2105-2.442,0.5346l-0.5336-1.5697
						c0.938-0.4199,1.8595-0.7109,3.2505-0.7109c2.5225,0,3.7515,1.326,3.7515,3.6065v5.0614H241.8385z M241.8871,121.0377
						c-0.501-0.1951-1.1965-0.3407-1.9565-0.3407c-1.2295,0-1.957,0.5016-1.957,1.3745v0.0331c0,0.8079,0.7275,1.261,1.6495,1.261
						c1.2941,0,2.2641-0.7275,2.2641-1.7944V121.0377z"/>
					<path fill="#B30537" d="M247.7458,124.6596h-1.957v-8.539h1.957v1.9245c0.5336-1.2775,1.52-2.1505,3.024-2.0854v2.07h-0.113
						c-1.7145,0-2.911,1.1154-2.911,3.3794V124.6596z"/>
					<path fill="#B30537" d="M260.1362,124.6596h-2.2641l-2.5715-3.6869l-1.1965,1.2455v2.4414h-1.957v-11.8049h1.957v7.0498
						l3.5414-3.7839h2.3776l-3.3966,3.4776L260.1362,124.6596z"/>
					<path fill="#B30537" d="M264.7818,123.2532c0.9539,0,1.6336-0.3561,2.3125-1.0196l1.1487,1.0196
						c-0.8091,0.97-1.9246,1.6004-3.4937,1.6004c-2.474,0-4.3825-1.7955-4.3825-4.4476c0-2.458,1.7305-4.463,4.1725-4.463
						c2.7171,0,4.0916,2.1351,4.0916,4.6084c0,0.1787-0.0166,0.3395-0.0326,0.5346h-6.2745
						C262.5504,122.4761,263.5204,123.2532,264.7818,123.2532z M266.6903,119.7922c-0.1295-1.2621-0.8734-2.2487-2.1669-2.2487
						c-1.1971,0-2.0382,0.9226-2.2161,2.2487H266.6903z"/>
					<path fill="#B30537" d="M272.6455,121.9911c0,0.7605,0.3885,1.067,1.0516,1.067c0.4364,0,0.8245-0.097,1.2124-0.2911v1.6016
						c-0.485,0.2743-1.035,0.4364-1.7625,0.4364c-1.4396,0-2.458-0.6304-2.458-2.5064v-4.496h-1.0835v-1.6821h1.0835v-2.3444h1.9564
						v2.3444h2.2965v1.6821h-2.2965V121.9911z"/>
					<path fill="#B30537" d="M276.6263,114.8112v-1.8595h2.102v1.8595H276.6263z M276.7074,124.6596v-8.539h1.9565v8.539H276.7074z"
						/>
					<path fill="#B30537" d="M282.8547,124.6596h-1.957v-8.539h1.957v1.326c0.5495-0.8079,1.3419-1.5034,2.668-1.5034
						c1.9244,0,3.0405,1.2941,3.0405,3.2825v5.434h-1.957v-4.852c0-1.3261-0.6631-2.0854-1.8269-2.0854
						c-1.132,0-1.9245,0.7925-1.9245,2.1185V124.6596z"/>
					<path fill="#B30537" d="M294.4059,127.2796c-1.4071,0-2.7171-0.356-3.8165-1.0184l0.7275-1.4726
						c0.9053,0.5665,1.8759,0.906,3.0405,0.906c1.7464,0,2.7003-0.906,2.7003-2.62v-0.6623
						c-0.7115,0.9214-1.601,1.5684-3.008,1.5684c-2.005,0-3.8809-1.4715-3.8809-4.0111c0-2.5384,1.892-4.0264,3.8809-4.0264
						c1.4395,0,2.3292,0.6624,2.992,1.455v-1.2775h1.9571v6.7919C298.9989,125.9371,297.3487,127.2796,294.4059,127.2796z
						 M294.5673,117.5921c-1.3585,0-2.4255,0.938-2.4255,2.361c0,1.4242,1.0835,2.3775,2.4255,2.3775
						c1.3584,0,2.507-0.9534,2.507-2.3611C297.0744,118.5301,295.9258,117.5921,294.5673,117.5921z"/>
					<path fill="#B30537" d="M142.6682,137.8899h-2.2479v3.6384h-1.989v-11.3199h4.4635c2.6359,0,4.3014,1.4868,4.3014,3.8005
						C147.1962,136.5638,145.1588,137.8899,142.6682,137.8899z M142.7328,132.0193h-2.3125v4.0749h2.3125
						c1.504,0,2.442-0.8244,2.442-2.0368C145.1747,132.7148,144.2208,132.0193,142.7328,132.0193z"/>
					<path fill="#B30537" d="M156.1765,141.5283l-2.7815-3.946h-2.4906v3.946h-1.9889v-11.3199h5.0454
						c2.604,0,4.2051,1.3744,4.2051,3.5899c0,1.8761-1.116,3.008-2.7011,3.4445l3.0564,4.2855H156.1765z M153.7995,132.0193h-2.8951
						v3.8005h2.9111c1.423,0,2.329-0.7441,2.329-1.908C156.1445,132.6664,155.2709,132.0193,153.7995,132.0193z"/>
					<path fill="#B30537" d="M175.6544,141.5283h-2.1019l-1.1486-2.7336h-5.353l-1.1639,2.7336h-2.038l4.981-11.4016h1.8434
						L175.6544,141.5283z M169.7195,132.5043l-1.9404,4.528h3.8975L169.7195,132.5043z"/>
					<path fill="#B30537" d="M184.6844,138.8432l1.7465-5.8539h1.957l-2.7974,8.6041h-1.7471l-1.9079-5.8385l-1.9245,5.8385h-1.7465
						l-2.7655-8.6041h2.0056l1.7139,5.8539l1.892-5.8859h1.6661L184.6844,138.8432z"/>
					<path fill="#B30537" d="M194.7167,141.5283v-1.0516c-0.5819,0.6955-1.4714,1.229-2.7655,1.229
						c-1.6169,0-3.0399-0.9215-3.0399-2.6354v-0.032c0-1.844,1.4714-2.7501,3.4604-2.7501c1.035,0,1.698,0.1454,2.3609,0.3561
						v-0.2106c0-1.1805-0.7433-1.8275-2.1019-1.8275c-0.954,0-1.6661,0.2106-2.442,0.5346l-0.5336-1.5697
						c0.9375-0.4198,1.8595-0.7109,3.2505-0.7109c2.5224,0,3.7515,1.3261,3.7515,3.6066v5.0614H194.7167z M194.7653,137.9052
						c-0.501-0.194-1.1965-0.3395-1.9565-0.3395c-1.2295,0-1.957,0.5016-1.957,1.3756v0.032c0,0.8079,0.7275,1.2609,1.6495,1.2609
						c1.2941,0,2.2641-0.7275,2.2641-1.7943V137.9052z"/>
					<path fill="#B30537" d="M200.624,141.5283h-1.957v-8.539h1.957v1.9244c0.5334-1.2774,1.52-2.1504,3.024-2.0853v2.0699h-0.113
						c-1.7145,0-2.911,1.1154-2.911,3.3795V141.5283z"/>
					<path fill="#B30537" d="M211.2192,141.5283v-1.423c-0.6304,0.8894-1.5199,1.6004-2.9109,1.6004
						c-2.0056,0-3.962-1.6004-3.962-4.4463c0-2.8472,1.9244-4.4476,3.962-4.4476c1.4069,0,2.2965,0.7109,2.9109,1.5034v-4.5918
						h1.9571v11.8049H211.2192z M208.7772,134.5093c-1.3419,0-2.458,1.0349-2.458,2.7501c0,1.6819,1.132,2.7489,2.458,2.7489
						c1.3101,0,2.4746-1.0835,2.4746-2.7489C211.2518,135.5927,210.0873,134.5093,208.7772,134.5093z"/>
					<path fill="#B30537" d="M218.2265,141.6904c-1.2124,0-2.555-0.4365-3.6225-1.2775l0.8737-1.3259
						c0.9213,0.6943,1.9243,1.0503,2.7972,1.0503c0.8411,0,1.3267-0.356,1.3267-0.9214v-0.032c0-0.6635-0.9061-0.8894-1.9086-1.1971
						c-1.2615-0.356-2.6686-0.8729-2.6686-2.5064v-0.0331c0-1.617,1.3425-2.6034,3.0406-2.6034
						c1.0676,0,2.2315,0.3726,3.1375,0.9711l-0.7765,1.3899c-0.8244-0.5016-1.6979-0.8079-2.4094-0.8079
						c-0.7601,0-1.1971,0.3549-1.1971,0.8563v0.0332c0,0.6139,0.922,0.873,1.9245,1.1959c1.2455,0.3892,2.6525,0.9545,2.6525,2.491
						v0.032C221.3965,140.8008,220.0055,141.6904,218.2265,141.6904z"/>
					<path fill="#B30537" d="M228.7278,133.5227l-1.407-1.0988c1.0835-1.52,2.151-2.3775,4.1725-2.3775
						c2.2641,0,3.7355,1.3745,3.7355,3.396c0,1.7955-0.938,2.7655-2.943,4.399l-2.329,1.9399h5.3855v1.7471h-8.183v-1.5684
						l3.8975-3.3155c1.5526-1.3095,2.1185-2.0381,2.1185-3.0566c0-1.1154-0.7924-1.7625-1.8275-1.7625
						C230.313,131.8253,229.6014,132.3907,228.7278,133.5227z"/>
					<path fill="#B30537" d="M241.799,141.7222c-2.9754,0-4.916-2.5869-4.916-5.8373c0-3.2517,1.973-5.8705,4.9485-5.8705
						c2.9754,0,4.916,2.587,4.916,5.8375C246.7475,139.1022,244.7745,141.7222,241.799,141.7222z M241.799,131.8088
						c-1.7624,0-2.8625,1.7789-2.8625,4.043c0,2.2639,1.132,4.0749,2.8951,4.0749c1.7625,0,2.8625-1.7943,2.8625-4.0418
						C244.6941,133.6363,243.562,131.8088,241.799,131.8088z"/>
					<path fill="#B30537" d="M250.7319,130.1268h1.3905v11.4016h-1.9729v-9.3801l-2.0377,0.5666l-0.4204-1.617L250.7319,130.1268z"
						/>
					<path fill="#B30537" d="M258.4482,141.6904c-2.4738,0-4.3174-1.2941-4.3174-3.2505c0-1.3911,0.7599-2.2487,2.0374-2.7821
						c-0.954-0.5016-1.6495-1.2609-1.6495-2.5384c0-1.7471,1.6655-3.073,3.9294-3.073c2.264,0,3.9301,1.3259,3.9301,3.073
						c0,1.2775-0.6956,2.0368-1.6496,2.5384c1.2292,0.5666,2.0375,1.3745,2.0375,2.7335
						C262.7663,140.4283,260.9228,141.6904,258.4482,141.6904z M258.4482,136.5792c-1.3419,0-2.377,0.6802-2.377,1.7306
						c0,0.9545,0.8895,1.7151,2.377,1.7151c1.4881,0,2.3775-0.7607,2.3775-1.7151
						C260.8257,137.2594,259.7907,136.5792,258.4482,136.5792z M258.4482,131.7118c-1.2123,0-2.0215,0.7121-2.0215,1.585
						c0,1.003,0.8576,1.6985,2.0215,1.6985c1.1647,0,2.0215-0.6955,2.0215-1.6819
						C260.4698,132.4239,259.6614,131.7118,258.4482,131.7118z"/>
				</g>
			</g>
		</g>
		<g>
			<g>
				<path fill="#B30537" d="M112.8157,157.4691c-0.3901-22.3667-23.1383-24.0511-23.1383-24.0511
					S90.4786,156.2109,112.8157,157.4691z M87.1209,165.837c0,0,14.3808,17.7003,32.9652,5.2371
					C106.279,153.4721,87.1209,165.837,87.1209,165.837z M64.3178,134.3096c0,0,4.2244,22.4098,26.4958,20.2885
					C87.0515,132.5477,64.3178,134.3096,64.3178,134.3096z M83.012,131.0133c12.9985-16.6646-2.6983-31.4085-2.6983-31.4085
					S67.3535,116.8138,83.012,131.0133z M69.9072,126.5629c5.9631-20.2744-14.052-28.2201-14.052-28.2201
					S50.1373,119.1146,69.9072,126.5629z M57.2952,60.5144c0,0-9.4939,19.3327,8.5416,30.3414
					C75.4767,72.0537,57.2952,60.5144,57.2952,60.5144z M83.929,61.818c0,0-18.2521,11.549-8.6003,30.4139
					C93.4319,81.2079,83.929,61.818,83.929,61.818z M73.5405,30.2013c0,0-17.1761,13.0968-5.9214,31.0491
					C84.6924,48.7019,73.5405,30.2013,73.5405,30.2013z M103.587,32.1631c0,0-21.4681,2.6883-20.7514,23.9003
					C103.931,53.7925,103.587,32.1631,103.587,32.1631z M99.0336,6.0423c0,0-20.4068,7.1888-15.2154,27.7588
					C103.9602,27.1052,99.0336,6.0423,99.0336,6.0423z M101.5172,26.9743c21.2251,0.0422,23.2387-21.4938,23.2387-21.4938
					S103.1288,5.8084,101.5172,26.9743z"/>
			</g>
		</g>
		<g>
			<g>
				<path fill="#B30537" d="M310.3226,133.418c0,0-22.7482,1.6844-23.1383,24.0511
					C309.5214,156.2109,310.3226,133.418,310.3226,133.418z M279.914,171.0741c18.5844,12.4632,32.9651-5.2371,32.9651-5.2371
					S293.721,153.4721,279.914,171.0741z M309.1864,154.598c22.2714,2.1213,26.4958-20.2885,26.4958-20.2885
					S312.9485,132.5477,309.1864,154.598z M319.6863,99.6048c0,0-15.6967,14.7439-2.6983,31.4085
					C332.6465,116.8138,319.6863,99.6048,319.6863,99.6048z M344.1448,98.3428c0,0-20.015,7.9458-14.052,28.2201
					C349.8627,119.1146,344.1448,98.3428,344.1448,98.3428z M334.1633,90.8557c18.0355-11.0087,8.5416-30.3414,8.5416-30.3414
					S324.5233,72.0537,334.1633,90.8557z M324.6714,92.2319c9.6518-18.8649-8.6003-30.4139-8.6003-30.4139
					S306.5681,81.2079,324.6714,92.2319z M332.3809,61.2504c11.2547-17.9523-5.9214-31.0491-5.9214-31.0491
					S315.3076,48.7019,332.3809,61.2504z M317.1644,56.0634c0.7167-21.212-20.7514-23.9003-20.7514-23.9003
					S296.069,53.7925,317.1644,56.0634z M316.1818,33.8011c5.1913-20.57-15.2155-27.7588-15.2155-27.7588
					S296.0398,27.1052,316.1818,33.8011z M275.2441,5.4805c0,0,2.0136,21.536,23.2387,21.4938
					C296.8712,5.8084,275.2441,5.4805,275.2441,5.4805z"/>
			</g>
		</g>
	</g>
</g>
</svg>
